<svg width="40" height="40" viewBox="0 0 40 40" fill="none" xmlns="http://www.w3.org/2000/svg">
<path d="M18.3333 35H6.66667C6.22464 35 5.80072 34.8244 5.48816 34.5118C5.17559 34.1993 5 33.7754 5 33.3333V16.6667C5 16.2246 5.17559 15.8007 5.48816 15.4882C5.80072 15.1756 6.22464 15 6.66667 15H15L18.3333 18.3333H33.3333C33.7754 18.3333 34.1993 18.5089 34.5118 18.8215C34.8244 19.134 35 19.558 35 20V21.6667" stroke="#18191C" stroke-width="2" stroke-linecap="round" stroke-linejoin="round"/>
<path d="M25 31.6667L28.3333 35L35 28.3333" stroke="#18191C" stroke-width="2" stroke-linecap="round" stroke-linejoin="round"/>
<path d="M28.3333 5H10C9.55798 5 9.13406 5.17559 8.8215 5.48816C8.50894 5.80072 8.33334 6.22464 8.33334 6.66667V15H15L18.3333 18.3333H31.6667V8.33333L28.3333 5ZM28.3333 5V8.33333H31.6667L28.3333 5Z" stroke="#18191C" stroke-width="2" stroke-linecap="round" stroke-linejoin="round"/>
</svg>
