<svg width="107" height="30" viewBox="0 0 107 30" fill="none" xmlns="http://www.w3.org/2000/svg">
<circle cx="15" cy="15" r="13" stroke="url(#paint0_linear_2_96)" stroke-width="4"/>
<path d="M50.8595 10.5825L42.4873 19.4478H50.8595V22.6053H38V19.4478L46.3723 10.5825H38V7.42505H50.8595V10.5825Z" fill="black"/>
<path d="M60.227 23C58.8417 23 57.5768 22.6407 56.4324 21.9222C55.298 21.2037 54.3895 20.2423 53.7069 19.038C53.0343 17.8235 52.698 16.4826 52.698 15.0152C52.698 13.902 52.8938 12.8646 53.2853 11.9032C53.6768 10.9317 54.2139 10.0816 54.8965 9.35294C55.5892 8.61417 56.3923 8.03732 57.3058 7.62239C58.2193 7.20746 59.193 7 60.227 7C61.6124 7 62.8722 7.35927 64.0066 8.0778C65.151 8.79633 66.0595 9.76281 66.7321 10.9772C67.4147 12.1917 67.756 13.5376 67.756 15.0152C67.756 16.1183 67.5603 17.1505 67.1688 18.112C66.7773 19.0734 66.2352 19.9235 65.5425 20.6622C64.8599 21.3909 64.0618 21.9627 63.1483 22.3776C62.2448 22.7925 61.271 23 60.227 23ZM60.227 19.8425C61.0602 19.8425 61.8081 19.6199 62.4707 19.1746C63.1332 18.7293 63.6552 18.1423 64.0367 17.4137C64.4282 16.6749 64.624 15.8754 64.624 15.0152C64.624 14.1347 64.4232 13.3251 64.0216 12.5863C63.6301 11.8476 63.1031 11.2606 62.4405 10.8254C61.778 10.3801 61.0402 10.1575 60.227 10.1575C59.4039 10.1575 58.656 10.3801 57.9834 10.8254C57.3208 11.2707 56.7938 11.8627 56.4023 12.6015C56.0208 13.3403 55.8301 14.1448 55.8301 15.0152C55.8301 15.9159 56.0309 16.7305 56.4324 17.4592C56.834 18.1879 57.366 18.7698 58.0286 19.2049C58.7011 19.63 59.434 19.8425 60.227 19.8425Z" fill="black"/>
<path d="M83.741 13.0873V22.6053H80.609V13.8615C80.609 13.1834 80.4433 12.5661 80.1121 12.0095C79.7908 11.4529 79.3541 11.0127 78.802 10.6888C78.2599 10.3548 77.6476 10.1879 76.9649 10.1879C76.3024 10.1879 75.695 10.3548 75.1429 10.6888C74.5908 11.0127 74.1491 11.4529 73.8178 12.0095C73.4865 12.5661 73.3209 13.1834 73.3209 13.8615V22.6053H70.1888V7.42505H73.3209V9.03415C73.8429 8.4067 74.4854 7.91082 75.2483 7.54649C76.0113 7.18216 76.8344 7 77.7178 7C78.8321 7 79.846 7.27324 80.7596 7.81973C81.6731 8.36622 82.3959 9.09994 82.9279 10.0209C83.47 10.9418 83.741 11.9639 83.741 13.0873Z" fill="black"/>
<path d="M98.1678 7.42505H101.3V22.6053H98.1527L98.0323 20.4042C97.5906 21.1834 96.9933 21.8109 96.2404 22.2865C95.4875 22.7622 94.599 23 93.5751 23C92.4708 23 91.4318 22.7925 90.4581 22.3776C89.4843 21.9526 88.626 21.3656 87.8832 20.6167C87.1503 19.8678 86.5781 19.0076 86.1665 18.0361C85.755 17.0544 85.5492 16.0019 85.5492 14.8786C85.5492 13.7957 85.75 12.7786 86.1515 11.8273C86.553 10.8659 87.1102 10.0259 87.8229 9.3074C88.5357 8.58887 89.3588 8.0272 90.2924 7.62239C91.2361 7.20746 92.245 7 93.3191 7C94.4133 7 95.377 7.253 96.2102 7.75901C97.0535 8.2549 97.7512 8.89247 98.3033 9.67173L98.1678 7.42505ZM93.4998 19.9488C94.3832 19.9488 95.1562 19.7312 95.8187 19.296C96.4813 18.8507 96.9933 18.2536 97.3546 17.5047C97.7261 16.7559 97.9118 15.926 97.9118 15.0152C97.9118 14.0942 97.7261 13.2593 97.3546 12.5104C96.9832 11.7615 96.4662 11.1695 95.8037 10.7343C95.1512 10.2891 94.3832 10.0664 93.4998 10.0664C92.6264 10.0664 91.8284 10.2891 91.1056 10.7343C90.3828 11.1796 89.8106 11.7767 89.389 12.5256C88.9673 13.2745 88.7565 14.1044 88.7565 15.0152C88.7565 15.9361 88.9724 16.771 89.404 17.5199C89.8457 18.2587 90.423 18.8507 91.1357 19.296C91.8585 19.7312 92.6465 19.9488 93.4998 19.9488Z" fill="black"/>
<path d="M105.344 23C104.882 23 104.49 22.8381 104.169 22.5142C103.858 22.1904 103.702 21.7957 103.702 21.3302C103.702 20.8748 103.858 20.4851 104.169 20.1613C104.49 19.8374 104.882 19.6755 105.344 19.6755C105.805 19.6755 106.197 19.8374 106.518 20.1613C106.839 20.4851 107 20.8748 107 21.3302C107 21.7957 106.839 22.1904 106.518 22.5142C106.197 22.8381 105.805 23 105.344 23Z" fill="black"/>
<defs>
<linearGradient id="paint0_linear_2_96" x1="5.85" y1="2.85" x2="24.45" y2="27.75" gradientUnits="userSpaceOnUse">
<stop stop-color="#FF7557"/>
<stop offset="0.31087" stop-color="#DE35FF"/>
<stop offset="0.704599" stop-color="#173EFF"/>
<stop offset="1" stop-color="#16F1FF"/>
</linearGradient>
</defs>
</svg>
