<svg width="40" height="40" viewBox="0 0 40 40" fill="none" xmlns="http://www.w3.org/2000/svg">
<path d="M31.5 23.3334C31.0314 19.6196 29.5573 16.1043 27.2369 13.1671C24.9165 10.2298 21.8378 7.98213 18.3333 6.66669V24.6667" stroke="#18191C" stroke-width="2" stroke-linecap="round" stroke-linejoin="round"/>
<path d="M9.99998 25.7333L18.3333 10M22.7833 33.3333H7.59998C7.217 33.3436 6.84218 33.2216 6.53862 32.9878C6.23506 32.7541 6.0213 32.4229 5.93332 32.05L4.99999 28.3333C4.92696 28.0956 4.90804 27.8446 4.94461 27.5987C4.98119 27.3527 5.07233 27.1181 5.21136 26.9119C5.3504 26.7058 5.53379 26.5334 5.74811 26.4073C5.96244 26.2812 6.20225 26.2047 6.44998 26.1833L33.1167 23.3C33.43 23.2537 33.7501 23.2976 34.0393 23.4266C34.3286 23.5556 34.5752 23.7644 34.7501 24.0285C34.9249 24.2926 35.021 24.601 35.0269 24.9177C35.0327 25.2344 34.9483 25.5463 34.7833 25.8167C33.6707 28.0543 31.9611 29.9406 29.8433 31.2672C27.7255 32.5937 25.2821 33.3088 22.7833 33.3333V33.3333Z" stroke="#18191C" stroke-width="2" stroke-linecap="round" stroke-linejoin="round"/>
</svg>
